<svg width="32" height="22" viewBox="0 0 32 22" fill="none" xmlns="http://www.w3.org/2000/svg">
<path d="M30.7733 15L29.3333 6.87996C29.2533 6.14663 28.68 5.54663 27.5867 4.93329C27.3743 4.60873 27.0937 4.33441 26.7643 4.12946C26.435 3.92451 26.065 3.79386 25.68 3.74663C25.3237 3.15636 24.7574 2.72257 24.0948 2.53218C23.4321 2.34178 22.722 2.40886 22.1067 2.71996C21.8264 2.34426 21.452 2.04907 21.0213 1.86415C20.5906 1.67923 20.1188 1.6111 19.6533 1.66663C19.413 1.24669 19.0628 0.900064 18.6405 0.663899C18.2182 0.427735 17.7396 0.31093 17.2559 0.326001C16.7723 0.341072 16.3019 0.48745 15.8951 0.749452C15.4883 1.01145 15.1604 1.3792 14.9467 1.81329C14.7402 1.73823 14.5252 1.68897 14.3067 1.66663C14.0732 1.25939 13.7363 0.921017 13.3301 0.685699C12.9239 0.450381 12.4628 0.32646 11.9933 0.32646C11.5239 0.32646 11.0628 0.450381 10.6566 0.685699C10.2504 0.921017 9.91352 1.25939 9.68 1.66663C9.27333 1.61246 8.85964 1.65286 8.47112 1.78467C8.08261 1.91649 7.72975 2.13617 7.44 2.42663C7.18853 2.35604 6.92771 2.32457 6.66667 2.33329C5.95942 2.33329 5.28115 2.61425 4.78105 3.11434C4.28095 3.61444 4 4.29272 4 4.99996C4 4.99996 4 5.07996 4 5.13329C3.65892 5.29248 3.36033 5.53007 3.1286 5.82668C2.89688 6.12329 2.73859 6.4705 2.66667 6.83996L1.22667 15C0.869792 15.2024 0.570084 15.4921 0.355561 15.8419C0.141038 16.1916 0.0187059 16.5901 0 17C0.0142708 17.3138 0.0968231 17.6207 0.241901 17.8994C0.386978 18.178 0.591089 18.4216 0.84 18.6133C0.894413 18.6839 0.962419 18.7428 1.04 18.7866C3.46667 20.68 9.76 21.6666 16 21.6666C22.24 21.6666 28.5333 20.68 30.96 18.7733C31.0376 18.7295 31.1056 18.6705 31.16 18.6C31.4072 18.4097 31.6104 18.1682 31.7554 17.892C31.9004 17.6158 31.9838 17.3115 32 17C31.9813 16.5901 31.859 16.1916 31.6444 15.8419C31.4299 15.4921 31.1302 15.2024 30.7733 15ZM5.04 6.07996C5.16603 6.00353 5.26318 5.88749 5.31625 5.74998C5.36933 5.61247 5.37533 5.46125 5.33333 5.31996C5.32049 5.21368 5.32049 5.10624 5.33333 4.99996C5.33373 4.76741 5.39495 4.539 5.51091 4.33742C5.62687 4.13584 5.79353 3.96809 5.99436 3.85083C6.19518 3.73357 6.42319 3.67087 6.65573 3.66897C6.88828 3.66706 7.11728 3.72601 7.32 3.83996C7.46944 3.92448 7.64573 3.94808 7.81214 3.90586C7.97856 3.86363 8.12226 3.75884 8.21333 3.61329C8.38024 3.35299 8.63242 3.15878 8.92673 3.06392C9.22104 2.96906 9.53917 2.97945 9.82667 3.09329C9.9107 3.12009 9.99921 3.12994 10.0871 3.12229C10.1749 3.11463 10.2604 3.08962 10.3385 3.04869C10.4167 3.00777 10.4859 2.95175 10.5422 2.88387C10.5986 2.816 10.6408 2.73763 10.6667 2.65329C10.744 2.38287 10.9049 2.14385 11.1264 1.97041C11.3478 1.79696 11.6184 1.69798 11.8995 1.68763C12.1806 1.67727 12.4577 1.75607 12.6913 1.91275C12.9249 2.06943 13.1029 2.29597 13.2 2.55996C13.2636 2.69306 13.3639 2.8052 13.4891 2.88316C13.6143 2.96112 13.7592 3.00165 13.9067 2.99996C14.2527 2.99428 14.5874 3.12338 14.84 3.35996C14.9308 3.45985 15.0498 3.52983 15.1812 3.56065C15.3126 3.59146 15.4503 3.58165 15.576 3.53251C15.7017 3.48338 15.8096 3.39723 15.8853 3.28548C15.961 3.17372 16.001 3.04161 16 2.90663C15.9664 2.55301 16.0747 2.20052 16.301 1.92672C16.5273 1.65292 16.853 1.48022 17.2067 1.44663C17.5603 1.41303 17.9128 1.52129 18.1866 1.74759C18.4604 1.97388 18.6331 2.29967 18.6667 2.65329C18.6917 2.74394 18.7357 2.82826 18.7957 2.90071C18.8556 2.97316 18.9303 3.0321 19.0146 3.07366C19.099 3.11521 19.1912 3.13845 19.2852 3.14183C19.3792 3.14522 19.4729 3.12867 19.56 3.09329C19.7245 3.02906 19.9001 2.99813 20.0766 3.0023C20.2531 3.00648 20.4271 3.04568 20.5883 3.11762C20.7496 3.18956 20.8949 3.29282 21.016 3.4214C21.137 3.54998 21.2313 3.70132 21.2933 3.86663C21.3319 3.975 21.3978 4.07156 21.4847 4.14692C21.5716 4.22228 21.6765 4.27388 21.7892 4.29669C21.902 4.31951 22.0187 4.31277 22.1281 4.27713C22.2374 4.24149 22.3357 4.17816 22.4133 4.09329C22.5699 3.92706 22.7665 3.80381 22.9844 3.73537C23.2022 3.66693 23.434 3.65559 23.6575 3.70243C23.881 3.74927 24.0887 3.85272 24.2607 4.00288C24.4328 4.15303 24.5634 4.34485 24.64 4.55996C24.7026 4.691 24.8008 4.80177 24.9234 4.87959C25.0461 4.9574 25.1881 4.99912 25.3333 4.99996C25.5791 4.99572 25.8212 5.05947 26.0329 5.18418C26.2447 5.30888 26.4179 5.48969 26.5333 5.70663C26.6031 5.83023 26.7106 5.92832 26.84 5.98663C27.72 6.41329 28.04 6.78663 28.04 6.99996C28.04 7.90663 23.8 9.66663 16.04 9.66663C8.28 9.66663 4 7.90663 4 6.99996C4 6.81329 4.26667 6.46663 5.04 6.07996Z" fill="#585CC6"/>
</svg>
