<svg width="642" height="1392" viewBox="0 0 642 1392" fill="none" xmlns="http://www.w3.org/2000/svg">
<path opacity="0.07" d="M42.7271 776.5L83.0012 772.229L42.7271 776.5ZM446.227 513.5L424.247 547.517L446.227 513.5ZM232.227 464L272.696 462.403L232.227 464ZM794.671 1316.16C445.733 1182.96 274.509 1098.57 186.473 1021.79C144.063 984.801 122.027 950.362 108.59 913.109C94.5639 874.225 89.2055 830.726 83.0012 772.229L2.45299 780.771C8.49869 837.774 14.5153 891.025 32.3955 940.594C50.8643 991.795 81.2667 1037.51 133.231 1082.83C233.946 1170.68 419.221 1259.54 765.783 1391.84L794.671 1316.16ZM83.0012 772.229C74.8545 695.417 99.6224 594.598 155.313 536.889C182.032 509.202 215.406 491.713 256.924 489.935C299.249 488.122 354.544 502.477 424.247 547.517L468.207 479.483C389.245 428.462 317.5 406.266 253.458 409.009C188.608 411.786 136.287 439.96 97.0274 480.642C20.7621 559.671 -7.55478 686.412 2.45299 780.771L83.0012 772.229ZM424.247 547.517C490.418 590.273 501.118 628.859 498.685 650.43C496.075 673.578 476.624 696.668 444.808 706.018C414.556 714.908 376.256 709.728 343.239 677.664C309.492 644.892 277.332 579.862 272.696 462.403L191.759 465.597C196.872 595.138 232.9 683.421 286.809 735.773C341.448 788.835 410.273 800.592 467.646 783.732C523.455 767.332 572.129 721.984 579.175 659.507C586.399 595.454 548.286 531.227 468.207 479.483L424.247 547.517ZM272.696 462.403C260.266 147.522 316.116 -9.23766 412.034 -93.7497C510.376 -180.398 661.173 -201.927 871.353 -215.585L866.101 -296.415C660.782 -283.073 480.788 -262.284 358.485 -154.525C233.758 -44.6281 179.108 145.112 191.759 465.597L272.696 462.403Z" fill="white"/>
</svg>
