<svg width="1440" height="869" viewBox="0 0 1440 869" fill="none" xmlns="http://www.w3.org/2000/svg">
<path opacity="0.07" d="M466.5 42.7271L470.771 83.0012L466.5 42.7271ZM729.5 446.227L695.483 424.247L729.5 446.227ZM779 232.227L780.597 272.696L779 232.227ZM-73.1632 794.671C60.0401 445.733 144.426 274.509 221.209 186.473C258.199 144.063 292.638 122.027 329.891 108.59C368.775 94.564 412.274 89.2055 470.771 83.0012L462.229 2.453C405.226 8.4987 351.975 14.5153 302.406 32.3955C251.205 50.8643 205.489 81.2667 160.166 133.231C72.3241 233.946 -16.5402 419.221 -148.837 765.783L-73.1632 794.671ZM470.771 83.0012C547.583 74.8545 648.402 99.6224 706.111 155.313C733.798 182.032 751.287 215.406 753.065 256.924C754.878 299.249 740.523 354.544 695.483 424.247L763.517 468.207C814.538 389.245 836.734 317.5 833.991 253.458C831.214 188.608 803.04 136.287 762.358 97.0274C683.329 20.7621 556.588 -7.55476 462.229 2.453L470.771 83.0012ZM695.483 424.247C652.727 490.418 614.141 501.118 592.57 498.685C569.422 496.075 546.332 476.624 536.982 444.808C528.092 414.556 533.272 376.256 565.335 343.239C598.108 309.492 663.138 277.332 780.597 272.696L777.403 191.759C647.862 196.872 559.579 232.9 507.227 286.809C454.165 341.448 442.408 410.273 459.268 467.646C475.668 523.455 521.015 572.129 583.493 579.175C647.546 586.399 711.773 548.286 763.517 468.207L695.483 424.247ZM780.597 272.696C1095.48 260.266 1252.24 316.116 1336.75 412.034C1423.4 510.376 1444.93 661.173 1458.59 871.353L1539.41 866.101C1526.07 660.782 1505.28 480.788 1397.52 358.485C1287.63 233.758 1097.89 179.108 777.403 191.759L780.597 272.696Z" fill="white"/>
</svg>
