<svg width="20" height="20" viewBox="0 0 20 20" fill="none" xmlns="http://www.w3.org/2000/svg">
<path opacity="0.4" d="M10.0167 1.66667C5.17502 1.66667 1.66669 5.61667 1.66669 10C1.66669 11.4 2.07502 12.8417 2.79169 14.1583C2.92502 14.375 2.94169 14.65 2.85002 14.9083L2.29169 16.775C2.16669 17.225 2.55002 17.5583 2.97502 17.425L4.65835 16.925C5.11669 16.775 5.47502 16.9667 5.90085 17.225C7.11752 17.9417 8.63335 18.3083 10 18.3083C14.1334 18.3083 18.3334 15.1167 18.3334 9.975C18.3334 5.54167 14.75 1.66667 10.0167 1.66667" fill="#8A8A8A"/>
<path fill-rule="evenodd" clip-rule="evenodd" d="M9.98374 11.0751C9.39207 11.0667 8.91707 10.5917 8.91707 10.0001C8.91707 9.41675 9.40041 8.93342 9.98374 8.94175C10.5754 8.94175 11.0504 9.41675 11.0504 10.0084C11.0504 10.5917 10.5754 11.0751 9.98374 11.0751ZM6.14174 11.0751C5.55841 11.0751 5.07507 10.5918 5.07507 10.0084C5.07507 9.41677 5.55007 8.94177 6.14174 8.94177C6.73341 8.94177 7.20841 9.41677 7.20841 10.0084C7.20841 10.5918 6.73341 11.0668 6.14174 11.0751ZM12.7586 10.0084C12.7586 10.5917 13.2336 11.0751 13.8252 11.0751C14.4169 11.0751 14.8919 10.5917 14.8919 10.0084C14.8919 9.41675 14.4169 8.94175 13.8252 8.94175C13.2336 8.94175 12.7586 9.41675 12.7586 10.0084Z" fill="#8A8A8A"/>
</svg>
