<svg width="18" height="18" viewBox="0 0 18 18" fill="none" xmlns="http://www.w3.org/2000/svg">
<path opacity="0.4" d="M14.9944 14.2149H10.7237C10.307 14.2149 9.96814 14.5592 9.96814 14.9825C9.96814 15.4065 10.307 15.75 10.7237 15.75H14.9944C15.4111 15.75 15.75 15.4065 15.75 14.9825C15.75 14.5592 15.4111 14.2149 14.9944 14.2149Z" fill="white"/>
<path d="M7.73177 5.17791L11.7787 8.44798C11.8763 8.52618 11.893 8.66969 11.8168 8.76966L7.01906 15.0212C6.71746 15.4074 6.27301 15.6258 5.79681 15.6339L3.17772 15.6662C3.03804 15.6678 2.91581 15.571 2.88406 15.4323L2.28882 12.8443C2.18564 12.3687 2.28882 11.8769 2.59041 11.4979L7.41192 5.21661C7.4897 5.11583 7.63335 5.09809 7.73177 5.17791Z" fill="white"/>
<path opacity="0.4" d="M13.5905 6.49908L12.8103 7.473C12.7317 7.57217 12.5904 7.58829 12.4928 7.50928C11.5444 6.74175 9.11578 4.77213 8.44196 4.22632C8.34355 4.14569 8.33006 4.00219 8.40942 3.90221L9.16182 2.96779C9.84437 2.089 11.0349 2.00838 11.9952 2.7743L13.0984 3.65309C13.5508 4.00783 13.8524 4.47544 13.9555 4.96724C14.0746 5.50822 13.9476 6.03953 13.5905 6.49908Z" fill="white"/>
</svg>
