<svg width="378" height="328" viewBox="0 0 378 328" fill="none" xmlns="http://www.w3.org/2000/svg">
<path d="M378 247.791H0V247.942H378V247.791Z" fill="#EBEBEB"/>
<path d="M64.7135 259.976H39.6899V260.127H64.7135V259.976Z" fill="#EBEBEB"/>
<path d="M135.929 262.095H102.287V262.246H135.929V262.095Z" fill="#EBEBEB"/>
<path d="M118.692 253.013H65.4695V253.164H118.692V253.013Z" fill="#EBEBEB"/>
<path d="M340.124 254.224H330.523V254.375H340.124V254.224Z" fill="#EBEBEB"/>
<path d="M323.795 254.224H295.974V254.375H323.795V254.224Z" fill="#EBEBEB"/>
<path d="M233.075 257.478H209.563V257.63H233.075V257.478Z" fill="#EBEBEB"/>
<path d="M179.172 214.035H33.1884C30.8448 214.035 28.8792 212.068 28.8792 209.721V4.31401C28.8792 1.96779 30.8448 0 33.1884 0H179.172C181.516 0 183.481 1.96779 183.481 4.31401V209.721C183.481 212.143 181.591 214.035 179.172 214.035ZM33.1884 0.151369C30.9204 0.151369 29.0304 1.96779 29.0304 4.31401V209.721C29.0304 211.992 30.8448 213.884 33.1884 213.884H179.172C181.44 213.884 183.33 212.068 183.33 209.721V4.31401C183.33 2.04348 181.516 0.151369 179.172 0.151369H33.1884V0.151369Z" fill="#EBEBEB"/>
<path d="M342.695 214.035H196.711C194.368 214.035 192.402 212.068 192.402 209.721V4.31401C192.402 1.96779 194.368 0 196.711 0H342.695C345.038 0 347.004 1.96779 347.004 4.31401V209.721C347.004 212.143 345.114 214.035 342.695 214.035ZM196.711 0.151369C194.443 0.151369 192.553 1.96779 192.553 4.31401V209.721C192.553 211.992 194.368 213.884 196.711 213.884H342.695C344.963 213.884 346.853 212.068 346.853 209.721V4.31401C346.853 2.04348 345.038 0.151369 342.695 0.151369H196.711V0.151369Z" fill="#EBEBEB"/>
<path d="M240.06 172.617L240.06 10.4255L40.9297 10.4255L40.9297 172.617L240.06 172.617Z" fill="#EBEBEB"/>
<path d="M241.281 172.606L241.281 10.4139H240.072L240.072 172.606H241.281Z" fill="#E0E0E0"/>
<path d="M50.7015 162.808L230.251 162.808L230.251 20.2944L50.7015 20.2944L50.7015 162.808Z" fill="#F5F5F5"/>
<path d="M132.527 162.797H156.568L116.424 20.2078H92.3076L132.527 162.797Z" fill="white"/>
<path d="M113.173 162.797H127.084L86.9399 20.2078H73.0295L113.173 162.797Z" fill="white"/>
<path d="M190.436 162.797H196.182L156.038 20.2078H150.217L190.436 162.797Z" fill="white"/>
<path d="M321.98 241.585H111.812C108.788 241.585 106.369 239.087 106.445 235.984L111.434 85.5234C111.51 82.496 114.156 79.9227 117.18 79.9227H327.348C330.372 79.9227 332.791 82.4203 332.716 85.5234L327.726 235.984C327.65 239.087 325.004 241.585 321.98 241.585Z" fill="#E0E0E0"/>
<g opacity="0.6">
<g opacity="0.6">
<path opacity="0.6" d="M320.242 241.585H110.074C107.05 241.585 104.63 239.087 104.706 235.984L109.696 85.5234C109.771 82.496 112.417 79.9227 115.441 79.9227H325.609C328.633 79.9227 331.052 82.4203 330.977 85.5234L325.987 235.984C325.912 239.087 323.341 241.585 320.242 241.585Z" fill="#FAFAFA"/>
</g>
</g>
<path d="M317.52 241.357H63.6553C61.0093 241.357 58.7413 242.871 57.6829 245.142C57.0781 246.428 57.9853 247.866 59.4217 247.866H321.754C323.19 247.866 324.097 246.428 323.492 245.142C322.51 242.871 320.166 241.357 317.52 241.357Z" fill="#E0E0E0"/>
<path opacity="0.6" d="M63.6553 241.357H266.263C268.909 241.357 271.177 242.871 272.236 245.142C272.84 246.428 271.933 247.866 270.497 247.866H59.4217C57.9853 247.866 57.0781 246.428 57.6829 245.142C58.7413 242.871 61.0093 241.357 63.6553 241.357Z" fill="#FAFAFA"/>
<path opacity="0.3" d="M184.766 245.444H132.073C130.788 245.444 129.73 246.504 129.73 247.791H187.186C187.11 246.504 186.052 245.444 184.766 245.444Z" fill="#E0E0E0"/>
<path opacity="0.9" d="M109.696 230.61L114.307 91.0483C114.383 89.8374 115.366 88.8535 116.575 88.8535H323.87C325.08 88.8535 325.987 89.8374 325.987 91.0483L321.3 230.61C321.224 231.821 320.242 232.805 319.032 232.805H111.812C110.603 232.805 109.696 231.821 109.696 230.61Z" fill="white"/>
<path d="M115.214 224.631L119.448 96.8003C119.524 95.3623 120.733 94.1514 122.17 94.1514H317.747C319.259 94.1514 320.544 95.438 320.468 96.9517L316.235 224.783C316.159 226.221 314.95 227.432 313.513 227.432H117.936C116.348 227.507 115.139 226.221 115.214 224.631Z" fill="#F0F0F0"/>
<path d="M274.73 232.805H309.128L269.514 88.8535H235.192L274.73 232.805Z" fill="white"/>
<path d="M252.882 232.805H265.205L225.666 88.8535H213.268L252.882 232.805Z" fill="white"/>
<path d="M182.498 232.805H194.897L155.282 88.8535H142.884L182.498 232.805Z" fill="white"/>
<path opacity="0.4" d="M221.962 171.198C221.962 172.106 221.206 172.863 220.298 172.863C219.391 172.863 218.711 172.106 218.711 171.198C218.711 170.29 219.467 169.533 220.374 169.533C221.281 169.609 222.037 170.366 221.962 171.198Z" fill="white"/>
<path d="M189 282C269.959 282 335.588 278.171 335.588 273.448C335.588 268.724 269.959 264.895 189 264.895C108.041 264.895 42.4116 268.724 42.4116 273.448C42.4116 278.171 108.041 282 189 282Z" fill="#F5F5F5"/>
<path opacity="0.5" d="M119.448 176.193C86.3352 143.044 86.3352 89.3833 119.448 56.2335C152.561 23.0838 206.161 23.0838 239.274 56.2335C272.387 89.3833 272.387 143.044 239.274 176.193C206.161 209.343 152.561 209.343 119.448 176.193Z" fill="white"/>
<path d="M198.677 72.8084C200.945 69.8567 203.364 66.678 207.522 62.591C209.714 60.4719 216.518 55.9308 219.089 55.0226C221.054 54.3414 224.834 64.7102 224.834 71.1434C224.834 77.1981 222.642 95.1353 222.642 95.1353L198.677 72.8084Z" fill="#585CC6"/>
<path opacity="0.2" d="M203.515 79.0145C207.824 78.4091 214.024 70.2352 218.106 66.0725C222.188 61.9099 222.642 68.343 221.962 76.5926C221.584 80.6796 220.676 85.4477 219.391 87.7182C218.938 88.4751 217.804 88.4751 217.274 87.7939C214.402 84.3124 208.958 80.5282 203.515 79.0145Z" fill="white"/>
<path d="M227.934 189.968C226.346 191.027 224.683 192.011 223.02 192.995C206.69 202.38 187.942 206.013 169.722 204.045C153.468 202.304 137.668 196.023 124.286 185.275C128.066 178.842 131.015 173.696 132.3 170.744C137.592 158.559 140.389 156.894 140.692 146.298C141.07 135.702 136.08 123.517 134.795 112.694C143.413 108.607 217.804 133.28 217.804 133.28C210.622 148.039 222.566 159.467 225.364 166.203C228.841 174.15 228.841 182.097 227.934 189.968Z" fill="#585CC6"/>
<path d="M231.487 112.467C233.075 113.3 234.058 115.343 234.058 115.343C234.058 115.343 233.906 107.775 229.824 101.796C225.59 95.6651 222.415 93.6973 218.635 86.3559C214.704 78.7875 205.783 69.6297 193.536 68.7215C181.289 67.7376 152.032 66.1482 141.448 84.9179C138.348 90.4429 136.458 95.6651 135.475 100.585C131.62 106.866 128.671 118.522 128.822 121.928C130.712 119.581 133.51 117.765 133.51 117.765C133.51 117.765 131.846 128.209 132.3 133.734C134.795 130.707 137.592 128.966 139.482 127.982C144.547 136.989 162.767 150.082 188.395 147.206C209.261 144.86 218.635 141.681 222.944 134.794C224.381 132.523 225.893 129.647 227.178 126.696C227.934 127.377 229.522 129.118 230.807 132.448C231.941 126.923 230.504 121.246 230.504 121.246C230.504 121.246 232.546 123.29 233.604 124.501C233.755 119.581 233.377 116.554 231.487 112.467Z" fill="#585CC6"/>
<path opacity="0.3" d="M172.141 92.9405C174.938 89.3076 180.533 86.5073 185.447 91.124C187.034 92.562 184.388 104.899 172.141 92.9405Z" fill="black"/>
<path opacity="0.3" d="M218.786 91.6539C216.443 88.3994 212.209 86.1289 208.278 90.2158C206.464 92.1836 211.453 102.779 218.786 91.6539Z" fill="black"/>
<path d="M207.22 99.4493C200.264 99.1466 196.484 99.298 197.089 103.158C197.618 106.337 204.8 109.969 207.295 108.607C211.075 106.412 213.116 99.6764 207.22 99.4493Z" fill="white"/>
<path opacity="0.1" d="M204.574 107.85C197.694 105.882 184.237 103.915 180.079 111.407C176.98 117.008 178.567 122.684 183.33 126.847C188.395 131.237 196.409 135.551 204.422 136.232C215.536 137.216 220.223 133.129 223.096 128.663C227.48 122.003 229.522 110.953 220.979 107.775C216.14 105.882 209.336 106.866 204.574 107.85Z" fill="white"/>
<path opacity="0.1" d="M223.02 192.995C206.69 202.38 187.942 206.013 169.722 204.045C166.698 195.19 166.093 184.367 168.89 173.62C173.653 155.304 189.302 159.467 197.316 164.008C202.91 161.435 210.773 158.862 216.443 162.949C222.793 167.641 224.154 180.205 223.02 192.995Z" fill="white"/>
<path opacity="0.2" d="M197.77 119.506C195.955 119.506 193.838 119.127 191.646 118.37C191.344 118.295 191.268 117.992 191.344 117.689C191.419 117.387 191.722 117.235 192.024 117.387C196.258 118.825 199.66 118.825 202.23 117.462C205.178 115.873 205.859 112.921 205.859 112.921C205.934 112.694 206.086 112.543 206.312 112.543C206.539 112.543 206.69 112.618 206.842 112.77C211.226 120.111 215.989 117.689 216.065 117.614C216.292 117.462 216.67 117.614 216.745 117.841C216.896 118.068 216.745 118.446 216.518 118.522C216.443 118.522 211.226 121.171 206.539 114.132C206.01 115.267 204.952 117.084 202.759 118.295C201.247 119.127 199.584 119.506 197.77 119.506Z" fill="black"/>
<path d="M160.196 73.0355C155.509 71.3704 151.805 68.116 146.513 62.9694C142.506 59.1095 139.331 53.5846 135.702 53.2818C132.905 53.0548 130.561 62.9694 132.149 72.5057C133.358 79.9227 141.221 98.2384 141.221 98.2384L160.196 73.0355Z" fill="#585CC6"/>
<path opacity="0.2" d="M152.107 75.0032C153.166 74.3221 153.166 72.8084 152.032 72.1272C148.176 69.781 143.489 64.8615 140.692 61.5314C136.987 57.1417 135.778 64.7102 137.365 72.8084C137.894 75.6087 139.255 78.4847 140.54 80.6796C141.523 82.4203 144.018 82.6474 145.228 80.9823C146.966 78.7875 149.386 76.5926 152.107 75.0032Z" fill="white"/>
<path d="M224.154 85.5991L160.196 86.9614C159.818 86.9614 159.516 86.6587 159.516 86.3559C159.516 85.9775 159.818 85.6748 160.121 85.6748L224.078 84.3124C224.456 84.3124 224.759 84.6152 224.759 84.9179C224.759 85.2963 224.532 85.5991 224.154 85.5991Z" fill="white"/>
<path d="M168.361 100.66L151.805 101.039L151.2 85.8261L167.832 85.5234L168.361 100.66Z" fill="white"/>
<path opacity="0.3" d="M161.557 93.2432C161.557 94.2271 160.801 94.9839 159.818 94.9839C158.836 94.9839 158.08 94.2271 158.08 93.2432C158.08 92.2593 158.836 91.5024 159.818 91.5024C160.801 91.5024 161.557 92.2593 161.557 93.2432Z" fill="black"/>
<path opacity="0.2" d="M168.361 99.752L189.983 99.2979C191.721 99.2979 193.082 97.7842 193.007 96.0435L192.629 85.5991L167.832 86.1289L168.361 99.752Z" fill="white"/>
<path d="M136.609 101.341L151.805 101.039L151.2 85.9018L136.08 86.2045C134.795 86.2045 133.736 87.3398 133.812 88.6264L134.19 99.1466C134.266 100.358 135.324 101.341 136.609 101.341Z" fill="white"/>
<path opacity="0.3" d="M136.609 101.341L151.805 101.039L151.2 85.9018L136.08 86.2045C134.795 86.2045 133.736 87.3398 133.812 88.6264L134.19 99.1466C134.266 100.358 135.324 101.341 136.609 101.341Z" fill="#585CC6"/>
<path d="M302.173 223.723C301.795 222.058 301.115 220.696 300.208 219.56C298.242 217.441 296.201 215.473 294.084 213.506C292.043 211.538 289.926 209.57 287.809 207.678C285.692 205.71 283.5 203.894 281.383 202.002C276.998 198.293 272.538 194.66 267.926 191.179C265.81 189.589 263.693 188.076 261.5 186.562C262.483 183.762 261.954 180.583 259.686 178.312L256.511 175.134C255.906 174.528 255.301 174.074 254.621 173.771C283.046 136.61 280.325 83.2528 246.305 49.1949C209.336 12.1852 149.386 12.1852 112.417 49.1949C75.4488 86.2045 75.4488 146.222 112.417 183.232C146.362 217.214 199.735 220.015 236.855 191.557C237.233 192.238 237.686 192.844 238.216 193.449L241.391 196.628C243.583 198.823 246.834 199.428 249.631 198.444C251.143 200.639 252.655 202.758 254.243 204.878C257.72 209.494 261.349 214.035 265.054 218.349C266.944 220.544 268.834 222.663 270.724 224.783C272.614 226.902 274.579 229.021 276.545 231.064C278.51 233.108 280.476 235.227 282.593 237.195C283.727 238.103 285.088 238.784 286.751 239.163C288.414 239.465 290.38 239.541 293.026 238.936C297.259 237.876 300.737 234.622 301.871 230.081C302.551 227.356 302.476 225.464 302.173 223.723ZM116.953 178.691C82.4796 144.179 82.4796 88.248 116.953 53.8116C151.427 19.2995 207.295 19.2995 241.769 53.8116C276.242 88.3237 276.242 144.254 241.769 178.691C207.295 213.203 151.427 213.203 116.953 178.691Z" fill="#585CC6"/>
<path opacity="0.2" d="M302.173 223.723C301.795 222.058 301.115 220.696 300.208 219.56C298.242 217.441 296.201 215.473 294.084 213.506C292.043 211.538 289.926 209.57 287.809 207.678C285.692 205.71 283.5 203.894 281.383 202.002C276.998 198.293 272.538 194.66 267.926 191.179C265.81 189.589 263.693 188.076 261.5 186.562C262.483 183.762 261.954 180.583 259.686 178.312L256.511 175.134C255.906 174.528 255.301 174.074 254.621 173.771C283.046 136.61 280.325 83.2528 246.305 49.1949C209.336 12.1852 149.386 12.1852 112.417 49.1949C75.4488 86.2045 75.4488 146.222 112.417 183.232C146.362 217.214 199.735 220.015 236.855 191.557C237.233 192.238 237.686 192.844 238.216 193.449L241.391 196.628C243.583 198.823 246.834 199.428 249.631 198.444C251.143 200.639 252.655 202.758 254.243 204.878C257.72 209.494 261.349 214.035 265.054 218.349C266.944 220.544 268.834 222.663 270.724 224.783C272.614 226.902 274.579 229.021 276.545 231.064C278.51 233.108 280.476 235.227 282.593 237.195C283.727 238.103 285.088 238.784 286.751 239.163C288.414 239.465 290.38 239.541 293.026 238.936C297.259 237.876 300.737 234.622 301.871 230.081C302.551 227.356 302.476 225.464 302.173 223.723ZM116.953 178.691C82.4796 144.179 82.4796 88.248 116.953 53.8116C151.427 19.2995 207.295 19.2995 241.769 53.8116C276.242 88.3237 276.242 144.254 241.769 178.691C207.295 213.203 151.427 213.203 116.953 178.691Z" fill="black"/>
<path opacity="0.3" d="M249.631 198.444L261.425 186.638C261.5 186.562 258.325 195.568 249.631 198.444Z" fill="black"/>
<path d="M267.851 77.2738C266.717 74.7005 265.432 72.1272 264.146 69.7053L264.827 69.3269C266.188 71.8245 267.473 74.3977 268.607 76.971L267.851 77.2738ZM260.82 64.1047C257.04 58.2013 252.655 52.752 247.741 47.7568L248.346 47.1514C253.336 52.1465 257.796 57.6715 261.576 63.5749L260.82 64.1047Z" fill="#585CC6"/>
<path opacity="0.2" d="M267.851 77.2738C266.717 74.7005 265.432 72.1272 264.146 69.7053L264.827 69.3269C266.188 71.8245 267.473 74.3977 268.607 76.971L267.851 77.2738ZM260.82 64.1047C257.04 58.2013 252.655 52.752 247.741 47.7568L248.346 47.1514C253.336 52.1465 257.796 57.6715 261.576 63.5749L260.82 64.1047Z" fill="black"/>
<path d="M112.964 315.918C113.963 316.394 114.462 317.183 114.462 318.284C114.462 319.143 114.135 319.843 113.482 320.384C112.838 320.916 111.993 321.182 110.948 321.182C109.156 321.182 107.971 320.426 107.392 318.914L108.778 318.116C109.067 319.152 109.791 319.67 110.948 319.67C111.555 319.67 112.021 319.539 112.348 319.278C112.684 319.017 112.852 318.657 112.852 318.2C112.852 317.752 112.693 317.397 112.376 317.136C112.059 316.875 111.62 316.744 111.06 316.744H109.87V315.288H110.738C111.289 315.288 111.718 315.162 112.026 314.91C112.334 314.658 112.488 314.322 112.488 313.902C112.488 313.473 112.348 313.137 112.068 312.894C111.788 312.651 111.387 312.53 110.864 312.53C109.893 312.53 109.24 312.973 108.904 313.86L107.532 313.062C108.167 311.699 109.277 311.018 110.864 311.018C111.816 311.018 112.595 311.279 113.202 311.802C113.799 312.315 114.098 312.987 114.098 313.818C114.098 314.742 113.72 315.442 112.964 315.918ZM121.862 314V319.572H122.8V322.876H121.316V321H116.514V322.876H115.03V319.572H115.884C116.314 318.975 116.528 318.13 116.528 317.038V314H121.862ZM117.55 319.572H120.378V315.386H118.012V317.038C118.012 318.046 117.858 318.891 117.55 319.572ZM130.517 318.144H124.945C125.057 318.667 125.309 319.073 125.701 319.362C126.102 319.651 126.597 319.796 127.185 319.796C127.978 319.796 128.58 319.507 128.991 318.928L130.237 319.656C129.556 320.673 128.534 321.182 127.171 321.182C126.042 321.182 125.122 320.837 124.413 320.146C123.713 319.446 123.363 318.564 123.363 317.5C123.363 316.464 123.708 315.591 124.399 314.882C125.08 314.173 125.967 313.818 127.059 313.818C128.076 313.818 128.916 314.177 129.579 314.896C130.242 315.615 130.573 316.487 130.573 317.514C130.573 317.701 130.554 317.911 130.517 318.144ZM124.931 316.912H129.047C128.944 316.361 128.711 315.937 128.347 315.638C127.992 315.339 127.558 315.19 127.045 315.19C126.485 315.19 126.018 315.344 125.645 315.652C125.272 315.96 125.034 316.38 124.931 316.912ZM135.166 321.182C134.112 321.182 133.23 320.827 132.52 320.118C131.82 319.399 131.47 318.527 131.47 317.5C131.47 316.455 131.82 315.582 132.52 314.882C133.23 314.173 134.112 313.818 135.166 313.818C135.848 313.818 136.468 313.981 137.028 314.308C137.588 314.635 138.008 315.073 138.288 315.624L136.986 316.38C136.828 316.044 136.585 315.783 136.258 315.596C135.941 315.4 135.572 315.302 135.152 315.302C134.536 315.302 134.018 315.512 133.598 315.932C133.188 316.361 132.982 316.884 132.982 317.5C132.982 318.116 133.188 318.639 133.598 319.068C134.018 319.488 134.536 319.698 135.152 319.698C135.563 319.698 135.932 319.605 136.258 319.418C136.594 319.222 136.846 318.956 137.014 318.62L138.316 319.362C138.018 319.922 137.584 320.365 137.014 320.692C136.454 321.019 135.838 321.182 135.166 321.182ZM140.962 316.38H142.502C143.258 316.38 143.87 316.595 144.336 317.024C144.812 317.444 145.05 317.999 145.05 318.69C145.05 319.371 144.812 319.927 144.336 320.356C143.87 320.785 143.258 321 142.502 321H139.45V314H140.962V316.38ZM140.962 319.642H142.516C142.815 319.642 143.062 319.553 143.258 319.376C143.464 319.199 143.566 318.97 143.566 318.69C143.566 318.41 143.468 318.181 143.272 318.004C143.076 317.827 142.824 317.738 142.516 317.738H140.962V319.642ZM156.548 318.144H150.976C151.088 318.667 151.34 319.073 151.732 319.362C152.134 319.651 152.628 319.796 153.216 319.796C154.01 319.796 154.612 319.507 155.022 318.928L156.268 319.656C155.587 320.673 154.565 321.182 153.202 321.182C152.073 321.182 151.154 320.837 150.444 320.146C149.744 319.446 149.394 318.564 149.394 317.5C149.394 316.464 149.74 315.591 150.43 314.882C151.112 314.173 151.998 313.818 153.09 313.818C154.108 313.818 154.948 314.177 155.61 314.896C156.273 315.615 156.604 316.487 156.604 317.514C156.604 317.701 156.586 317.911 156.548 318.144ZM150.962 316.912H155.078C154.976 316.361 154.742 315.937 154.378 315.638C154.024 315.339 153.59 315.19 153.076 315.19C152.516 315.19 152.05 315.344 151.676 315.652C151.303 315.96 151.065 316.38 150.962 316.912ZM167.595 314V319.572H168.533V322.876H167.049V321H157.935V314H159.447V319.572H162.009V314H163.521V319.572H166.083V314H167.595ZM176.249 318.144H170.677C170.789 318.667 171.041 319.073 171.433 319.362C171.835 319.651 172.329 319.796 172.917 319.796C173.711 319.796 174.313 319.507 174.723 318.928L175.969 319.656C175.288 320.673 174.266 321.182 172.903 321.182C171.774 321.182 170.855 320.837 170.145 320.146C169.445 319.446 169.095 318.564 169.095 317.5C169.095 316.464 169.441 315.591 170.131 314.882C170.813 314.173 171.699 313.818 172.791 313.818C173.809 313.818 174.649 314.177 175.311 314.896C175.974 315.615 176.305 316.487 176.305 317.514C176.305 317.701 176.287 317.911 176.249 318.144ZM170.663 316.912H174.779C174.677 316.361 174.443 315.937 174.079 315.638C173.725 315.339 173.291 315.19 172.777 315.19C172.217 315.19 171.751 315.344 171.377 315.652C171.004 315.96 170.766 316.38 170.663 316.912ZM185.854 316.786V314H187.366V321H185.854V318.214H182.648V321H181.136V314H182.648V316.786H185.854ZM195.882 318.144H190.31C190.422 318.667 190.674 319.073 191.066 319.362C191.468 319.651 191.962 319.796 192.55 319.796C193.344 319.796 193.946 319.507 194.356 318.928L195.602 319.656C194.921 320.673 193.899 321.182 192.536 321.182C191.407 321.182 190.488 320.837 189.778 320.146C189.078 319.446 188.728 318.564 188.728 317.5C188.728 316.464 189.074 315.591 189.764 314.882C190.446 314.173 191.332 313.818 192.424 313.818C193.442 313.818 194.282 314.177 194.944 314.896C195.607 315.615 195.938 316.487 195.938 317.514C195.938 317.701 195.92 317.911 195.882 318.144ZM190.296 316.912H194.412C194.31 316.361 194.076 315.937 193.712 315.638C193.358 315.339 192.924 315.19 192.41 315.19C191.85 315.19 191.384 315.344 191.01 315.652C190.637 315.96 190.399 316.38 190.296 316.912ZM196.253 314H202.343V315.456H200.061V321H198.549V315.456H196.253V314ZM212.788 320.118C212.079 320.827 211.206 321.182 210.17 321.182C209.134 321.182 208.262 320.827 207.552 320.118C206.834 319.399 206.474 318.527 206.474 317.5C206.474 316.473 206.834 315.601 207.552 314.882C208.262 314.173 209.134 313.818 210.17 313.818C211.206 313.818 212.079 314.173 212.788 314.882C213.507 315.601 213.866 316.473 213.866 317.5C213.866 318.527 213.507 319.399 212.788 320.118ZM207.986 317.5C207.986 318.135 208.196 318.662 208.616 319.082C209.036 319.502 209.554 319.712 210.17 319.712C210.786 319.712 211.304 319.502 211.724 319.082C212.144 318.662 212.354 318.135 212.354 317.5C212.354 316.865 212.144 316.338 211.724 315.918C211.304 315.498 210.786 315.288 210.17 315.288C209.554 315.288 209.036 315.498 208.616 315.918C208.196 316.338 207.986 316.865 207.986 317.5ZM214.218 314H220.308V315.456H218.026V321H216.514V315.456H214.218V314ZM225.06 317.416C225.807 317.752 226.18 318.307 226.18 319.082C226.18 319.689 225.933 320.193 225.438 320.594C224.943 320.986 224.271 321.182 223.422 321.182C222.013 321.182 221.061 320.622 220.566 319.502L221.798 318.774C222.05 319.474 222.596 319.824 223.436 319.824C223.828 319.824 224.136 319.745 224.36 319.586C224.584 319.418 224.696 319.199 224.696 318.928C224.696 318.685 224.607 318.494 224.43 318.354C224.253 318.205 224.005 318.13 223.688 318.13H222.694V316.8H223.436C223.744 316.8 223.982 316.73 224.15 316.59C224.327 316.441 224.416 316.24 224.416 315.988C224.416 315.745 224.318 315.549 224.122 315.4C223.926 315.241 223.665 315.162 223.338 315.162C222.638 315.162 222.153 315.47 221.882 316.086L220.65 315.386C221.163 314.341 222.05 313.818 223.31 313.818C224.094 313.818 224.715 314.019 225.172 314.42C225.639 314.812 225.872 315.293 225.872 315.862C225.872 316.562 225.601 317.08 225.06 317.416ZM228.927 316.38H230.467C231.223 316.38 231.835 316.595 232.301 317.024C232.777 317.444 233.015 317.999 233.015 318.69C233.015 319.371 232.777 319.927 232.301 320.356C231.835 320.785 231.223 321 230.467 321H227.415V314H228.927V316.38ZM233.855 321V314H235.367V321H233.855ZM228.927 319.642H230.481C230.78 319.642 231.027 319.553 231.223 319.376C231.429 319.199 231.531 318.97 231.531 318.69C231.531 318.41 231.433 318.181 231.237 318.004C231.041 317.827 230.789 317.738 230.481 317.738H228.927V319.642ZM241.966 317.402C242.657 317.729 243.002 318.265 243.002 319.012C243.002 319.609 242.797 320.09 242.386 320.454C241.985 320.818 241.425 321 240.706 321H237.122V314H240.426C241.136 314 241.691 314.177 242.092 314.532C242.494 314.887 242.694 315.353 242.694 315.932C242.694 316.595 242.452 317.085 241.966 317.402ZM240.314 315.288H238.564V316.842H240.314C240.93 316.842 241.238 316.581 241.238 316.058C241.238 315.545 240.93 315.288 240.314 315.288ZM238.564 319.684H240.566C241.201 319.684 241.518 319.409 241.518 318.858C241.518 318.615 241.434 318.429 241.266 318.298C241.098 318.158 240.865 318.088 240.566 318.088H238.564V319.684ZM250.154 320.118C249.444 320.827 248.572 321.182 247.536 321.182C246.5 321.182 245.627 320.827 244.918 320.118C244.199 319.399 243.84 318.527 243.84 317.5C243.84 316.473 244.199 315.601 244.918 314.882C245.627 314.173 246.5 313.818 247.536 313.818C248.572 313.818 249.444 314.173 250.154 314.882C250.872 315.601 251.232 316.473 251.232 317.5C251.232 318.527 250.872 319.399 250.154 320.118ZM245.352 317.5C245.352 318.135 245.562 318.662 245.982 319.082C246.402 319.502 246.92 319.712 247.536 319.712C248.152 319.712 248.67 319.502 249.09 319.082C249.51 318.662 249.72 318.135 249.72 317.5C249.72 316.865 249.51 316.338 249.09 315.918C248.67 315.498 248.152 315.288 247.536 315.288C246.92 315.288 246.402 315.498 245.982 315.918C245.562 316.338 245.352 316.865 245.352 317.5ZM257.443 317.402C258.133 317.729 258.479 318.265 258.479 319.012C258.479 319.609 258.273 320.09 257.863 320.454C257.461 320.818 256.901 321 256.183 321H252.599V314H255.903C256.612 314 257.167 314.177 257.569 314.532C257.97 314.887 258.171 315.353 258.171 315.932C258.171 316.595 257.928 317.085 257.443 317.402ZM255.791 315.288H254.041V316.842H255.791C256.407 316.842 256.715 316.581 256.715 316.058C256.715 315.545 256.407 315.288 255.791 315.288ZM254.041 319.684H256.043C256.677 319.684 256.995 319.409 256.995 318.858C256.995 318.615 256.911 318.429 256.743 318.298C256.575 318.158 256.341 318.088 256.043 318.088H254.041V319.684ZM260.481 319.068C260.771 319.068 261.018 319.171 261.223 319.376C261.429 319.581 261.531 319.829 261.531 320.118C261.531 320.407 261.429 320.655 261.223 320.86C261.018 321.065 260.771 321.168 260.481 321.168C260.192 321.168 259.945 321.065 259.739 320.86C259.534 320.655 259.431 320.407 259.431 320.118C259.431 319.829 259.529 319.581 259.725 319.376C259.931 319.171 260.183 319.068 260.481 319.068ZM264.05 319.068C264.339 319.068 264.586 319.171 264.792 319.376C264.997 319.581 265.1 319.829 265.1 320.118C265.1 320.407 264.997 320.655 264.792 320.86C264.586 321.065 264.339 321.168 264.05 321.168C263.76 321.168 263.513 321.065 263.308 320.86C263.102 320.655 263 320.407 263 320.118C263 319.829 263.098 319.581 263.294 319.376C263.499 319.171 263.751 319.068 264.05 319.068ZM267.618 319.068C267.908 319.068 268.155 319.171 268.36 319.376C268.566 319.581 268.668 319.829 268.668 320.118C268.668 320.407 268.566 320.655 268.36 320.86C268.155 321.065 267.908 321.168 267.618 321.168C267.329 321.168 267.082 321.065 266.876 320.86C266.671 320.655 266.568 320.407 266.568 320.118C266.568 319.829 266.666 319.581 266.862 319.376C267.068 319.171 267.32 319.068 267.618 319.068Z" fill="#8A8A8A"/>
</svg>
