<svg width="20" height="20" viewBox="0 0 20 20" fill="none" xmlns="http://www.w3.org/2000/svg">
<path d="M7.79113 12.3814C4.48796 12.3814 1.66669 12.8917 1.66669 14.9311C1.66669 16.9722 4.47002 17.5 7.79113 17.5C11.0943 17.5 13.9156 16.9897 13.9156 14.9503C13.9156 12.9093 11.1122 12.3814 7.79113 12.3814Z" fill="#797DDF"/>
<path opacity="0.4" d="M7.79111 10.4374C10.0408 10.4374 11.8436 8.67181 11.8436 6.46868C11.8436 4.26554 10.0408 2.5 7.79111 2.5C5.54224 2.5 3.73859 4.26554 3.73859 6.46868C3.73859 8.67181 5.54224 10.4374 7.79111 10.4374Z" fill="#797DDF"/>
<path opacity="0.4" d="M13.4779 6.54062C13.4779 7.66255 13.1338 8.70942 12.5304 9.57902C12.4676 9.66845 12.5231 9.78903 12.6323 9.80819C12.784 9.83295 12.9397 9.84812 13.0987 9.85131C14.6806 9.89204 16.1002 8.89468 16.4924 7.39265C17.0738 5.16396 15.368 3.16286 13.195 3.16286C12.9593 3.16286 12.7334 3.18681 12.5133 3.23073C12.4831 3.23712 12.4505 3.25149 12.4342 3.27705C12.413 3.30979 12.4285 3.35211 12.4497 3.38006C13.1028 4.2768 13.4779 5.36839 13.4779 6.54062Z" fill="#797DDF"/>
<path d="M18.1492 12.6411C17.8598 12.0366 17.161 11.6222 16.0977 11.4186C15.5962 11.2988 14.2378 11.1287 12.9747 11.1527C12.956 11.1551 12.9454 11.1678 12.9438 11.1758C12.9413 11.1886 12.947 11.2078 12.9715 11.2213C13.5553 11.504 15.8115 12.7338 15.5277 15.3274C15.5155 15.4408 15.6077 15.5366 15.7226 15.5206C16.2779 15.4432 17.7065 15.1421 18.1492 14.2062C18.3947 13.7112 18.3947 13.1362 18.1492 12.6411Z" fill="#797DDF"/>
</svg>
