<svg width="24" height="24" viewBox="0 0 24 24" fill="none" xmlns="http://www.w3.org/2000/svg">
<g id="Iconly/Bulk/Tick Square">
<g id="Tick Square">
<path id="Fill 1" opacity="0.4" d="M16.3405 1.9998H7.67049C4.28049 1.9998 2.00049 4.3798 2.00049 7.9198V16.0898C2.00049 19.6198 4.28049 21.9998 7.67049 21.9998H16.3405C19.7305 21.9998 22.0005 19.6198 22.0005 16.0898V7.9198C22.0005 4.3798 19.7305 1.9998 16.3405 1.9998" fill="#61BF4A"/>
<path id="Fill 4" d="M10.8134 15.2479C10.5894 15.2479 10.3654 15.1629 10.1944 14.9919L7.82144 12.6189C7.47944 12.2769 7.47944 11.7229 7.82144 11.3819C8.16344 11.0399 8.71644 11.0389 9.05844 11.3809L10.8134 13.1359L14.9414 9.0079C15.2834 8.6659 15.8364 8.6659 16.1784 9.0079C16.5204 9.3499 16.5204 9.9039 16.1784 10.2459L11.4324 14.9919C11.2614 15.1629 11.0374 15.2479 10.8134 15.2479" fill="#61BF4A"/>
</g>
</g>
</svg>
