<svg width="18" height="18" viewBox="0 0 18 18" fill="none" xmlns="http://www.w3.org/2000/svg">
<path d="M9.00033 0.666687C6.81707 0.672284 4.72291 1.53309 3.16685 3.06455V1.50002C3.16685 1.27901 3.07905 1.06704 2.92277 0.910765C2.76649 0.754484 2.55453 0.666687 2.33352 0.666687C2.1125 0.666687 1.90054 0.754484 1.74426 0.910765C1.58798 1.06704 1.50018 1.27901 1.50018 1.50002V5.25002C1.50012 5.35947 1.52163 5.46786 1.56349 5.569C1.60534 5.67013 1.66673 5.76202 1.74412 5.83942C1.82151 5.91681 1.91341 5.97819 2.01454 6.02005C2.11567 6.06191 2.22406 6.08342 2.33352 6.08335H6.08352C6.30453 6.08335 6.51649 5.99556 6.67277 5.83928C6.82905 5.683 6.91685 5.47103 6.91685 5.25002C6.91685 5.02901 6.82905 4.81705 6.67277 4.66076C6.51649 4.50448 6.30453 4.41669 6.08352 4.41669H4.18232C5.09761 3.44785 6.28288 2.77639 7.58443 2.48937C8.88597 2.20235 10.2437 2.31303 11.4816 2.80704C12.7195 3.30106 13.7804 4.15562 14.5267 5.25989C15.273 6.36417 15.6703 7.66721 15.667 9.00002C15.667 9.22103 15.7548 9.433 15.9111 9.58928C16.0674 9.74556 16.2793 9.83335 16.5003 9.83335C16.7213 9.83335 16.9333 9.74556 17.0896 9.58928C17.2459 9.433 17.3337 9.22103 17.3337 9.00002C17.3311 6.79068 16.4523 4.67257 14.89 3.11033C13.3278 1.54809 11.2097 0.669283 9.00033 0.666687ZM15.6575 11.9167H11.9075C11.6865 11.9167 11.4745 12.0045 11.3182 12.1608C11.162 12.317 11.0742 12.529 11.0742 12.75C11.0742 12.971 11.162 13.183 11.3182 13.3393C11.4745 13.4956 11.6865 13.5834 11.9075 13.5834H13.8184C12.9031 14.5522 11.7178 15.2237 10.4163 15.5107C9.11474 15.7977 7.75698 15.687 6.5191 15.193C5.28121 14.699 4.22032 13.8444 3.47402 12.7402C2.72771 11.6359 2.33042 10.3328 2.33367 9.00002C2.33367 8.77901 2.24587 8.56705 2.08959 8.41077C1.93331 8.25449 1.72135 8.16669 1.50033 8.16669C1.27932 8.16669 1.06736 8.25449 0.911079 8.41077C0.754798 8.56705 0.667001 8.77901 0.667001 9.00002C0.664632 10.6411 1.14754 12.2462 2.05498 13.6135C2.96243 14.9808 4.25391 16.0493 5.767 16.6846C7.28009 17.3198 8.94724 17.4935 10.5588 17.1838C12.1703 16.8741 13.6543 16.0948 14.8242 14.9439V16.5C14.8242 16.721 14.912 16.933 15.0682 17.0893C15.2245 17.2456 15.4365 17.3334 15.6575 17.3334C15.8785 17.3334 16.0905 17.2456 16.2467 17.0893C16.403 16.933 16.4908 16.721 16.4908 16.5V12.75C16.4909 12.6406 16.4694 12.5322 16.4275 12.431C16.3857 12.3299 16.3243 12.238 16.2469 12.1606C16.1695 12.0832 16.0776 12.0219 15.9765 11.98C15.8753 11.9381 15.7669 11.9166 15.6575 11.9167Z" fill="#585CC6"/>
</svg>
